<svg width="15" height="15" viewBox="0 0 15 15" fill="none" xmlns="http://www.w3.org/2000/svg">
<path fill-rule="evenodd" clip-rule="evenodd" d="M3.81086 9.66861C3.70419 9.66861 3.59686 9.63461 3.50619 9.56528C3.28752 9.39661 3.24619 9.08261 3.41486 8.86394L5.41019 6.27061C5.49152 6.16461 5.61219 6.09594 5.74419 6.07928C5.87886 6.06194 6.01086 6.09928 6.11553 6.18261L7.99552 7.65928L9.64019 5.53728C9.80953 5.31794 10.1229 5.27728 10.3415 5.44794C10.5602 5.61728 10.6002 5.93128 10.4309 6.14928L8.47752 8.66928C8.39619 8.77461 8.27619 8.84328 8.14419 8.85928C8.01086 8.87728 7.87886 8.83861 7.77353 8.75661L5.89486 7.28061L4.20752 9.47328C4.10886 9.60128 3.96086 9.66861 3.81086 9.66861Z" fill="#60626E"/>
<mask id="mask0_220_257" style="mask-type:luminance" maskUnits="userSpaceOnUse" x="10" y="0" width="5" height="4">
<path fill-rule="evenodd" clip-rule="evenodd" d="M10.53 0.333405H14.0927V3.89667H10.53V0.333405Z" fill="white"/>
</mask>
<g mask="url(#mask0_220_257)">
<path fill-rule="evenodd" clip-rule="evenodd" d="M12.3114 1.33334C11.8807 1.33334 11.53 1.68334 11.53 2.11468C11.53 2.54534 11.8807 2.89668 12.3114 2.89668C12.742 2.89668 13.0927 2.54534 13.0927 2.11468C13.0927 1.68334 12.742 1.33334 12.3114 1.33334ZM12.3114 3.89668C11.3294 3.89668 10.53 3.09734 10.53 2.11468C10.53 1.13201 11.3294 0.333344 12.3114 0.333344C13.294 0.333344 14.0927 1.13201 14.0927 2.11468C14.0927 3.09734 13.294 3.89668 12.3114 3.89668Z" fill="#60626E"/>
</g>
<mask id="mask1_220_257" style="mask-type:luminance" maskUnits="userSpaceOnUse" x="0" y="0" width="14" height="15">
<path fill-rule="evenodd" clip-rule="evenodd" d="M0.333252 0.894745H13.5745V14.1354H0.333252V0.894745Z" fill="white"/>
</mask>
<g mask="url(#mask1_220_257)">
<path fill-rule="evenodd" clip-rule="evenodd" d="M9.82192 14.1354H4.08592C1.84125 14.1354 0.333252 12.5587 0.333252 10.2121V4.82408C0.333252 2.47408 1.84125 0.894745 4.08592 0.894745H8.93125C9.20725 0.894745 9.43125 1.11874 9.43125 1.39474C9.43125 1.67074 9.20725 1.89474 8.93125 1.89474H4.08592C2.41392 1.89474 1.33325 3.04408 1.33325 4.82408V10.2121C1.33325 12.0154 2.38792 13.1354 4.08592 13.1354H9.82192C11.4939 13.1354 12.5746 11.9881 12.5746 10.2121V5.51941C12.5746 5.24341 12.7986 5.01941 13.0746 5.01941C13.3506 5.01941 13.5746 5.24341 13.5746 5.51941V10.2121C13.5746 12.5587 12.0666 14.1354 9.82192 14.1354Z" fill="#60626E"/>
</g>
</svg>
