<svg width="19" height="20" viewBox="0 0 19 20" fill="none" xmlns="http://www.w3.org/2000/svg">
<path d="M0.256855 17.9274C-0.112695 18.3379 -0.079558 18.9702 0.330869 19.3397C0.741297 19.7093 1.37359 19.6761 1.74314 19.2657L0.256855 17.9274ZM17.8427 0.947638C17.8138 0.39611 17.3432 -0.02756 16.7917 0.0013441L7.80403 0.472368C7.25251 0.501272 6.82884 0.971806 6.85774 1.52333C6.88665 2.07486 7.35718 2.49853 7.90871 2.46963L15.8977 2.05094L16.3164 10.04C16.3453 10.5915 16.8159 11.0152 17.3674 10.9863C17.9189 10.9574 18.3426 10.4868 18.3137 9.9353L17.8427 0.947638ZM1.74314 19.2657L17.5872 1.6691L16.1009 0.330844L0.256855 17.9274L1.74314 19.2657Z" fill="#ADB5BD"/>
</svg>
